# xmcd
#
# Track frame offsets:
#	150
#	13890
#	24170
#	33877
#	46442
#	59030
#	68602
#	80307
#	89482
#	101492
#	112287
#	124840
#	134527
#	143717
#	153675
#	164059
#	175700
#	188182
#	200130
#	210587
#
# Disc length: 2985 seconds
#
# Revision: 3
# Processed by: cddbd v1.5.2PL0 Copyright (c) Steve Scherf et al.
# Submitted via: audiograbber 1.83.01
#
DISCID=260ba714
DTITLE=Skeeter Davis - Essential Skeeter Davis
DYEAR=1995
DGENRE=Country
TTITLE0=I Forgot More Than You'll Ever Know
TTITLE1=Set Him Free
TTITLE2=Am I That Easy To Forget
TTITLE3=The One You Slip Around With
TTITLE4=(I Can't Help You) I'm Falling Too
TTITLE5=No, Never
TTITLE6=My Last Date With You
TTITLE7=Optimistic
TTITLE8=The End Of The World
TTITLE9=Gonna Get Along Without You Now
TTITLE10=Where I Ought Yo Be
TTITLE11=I Can't Stay Mad At You
TTITLE12=I'm Saving My Love
TTITLE13=Silver Threads And Golden Needles
TTITLE14=Mine Is A Lonely Life
TTITLE15=Let Me Get Close To You
TTITLE16=Fuel To The Flame
TTITLE17=What Does It Take (To Keep A Man Like You Satisfied)
TTITLE18=I'm A Lover (Not A Fighter)
TTITLE19=Bus Fare To Kentucky
EXTD=Skeeter Davis [Mary Frances Penick] (1931/2004): vocals\nCompilation produ
EXTD=ced by Paul Williams.\nSelection and sequence: Colin Escott\nAudio restorati
EXTD=on: Bill Lacey\nDigital transfers: James P. Nichols\nCD: RCA 66536 (1995-0
EXTD=3-28), UPC 078636653624.
EXTT0=(Cecil Null)
EXTT1=(Skeeter Davis/Helen Moyers/Marie Wilson)
EXTT2=(Carl R. Belew/W.S. Stevenson)
EXTT3=(Harlan Howard/Fuzzy Owen)
EXTT4=(Hal Blair/Don Robertson)
EXTT5=(Skeeter Davis)
EXTT6=(Floyd Cramer, Jr./Skeeter Davis/Boudleaux Bryant)
EXTT7=(Aubrey Freeman)
EXTT8=(Arthur Kent/Sylvia Dee)
EXTT9=(Milton Kellum)
EXTT10=(Harlan Howard)
EXTT11=(Gerry Goffin/Carole King)
EXTT12=(Alex Zanetis]\nProducer's note: The slight left-channel drop-out about 
EXTT12=¾ through this track (1:09?) is an uncorrectable defect of the original 
EXTT12=multi-track tapes and original vinyl pressings.
EXTT13=(Dick Reynolds/Jack Rhodes)
EXTT14=(Justin Tubb)
EXTT15=(Gerry Goffin/Carole King)
EXTT16=(Dolly Parton/Bill Owens)
EXTT17=(Jim Glaser)
EXTT18=(Ronny Light)
EXTT19=(Ronny Light)
PLAYORDER=
